<svg width="36" height="36" viewBox="0 0 36 36" fill="none" xmlns="http://www.w3.org/2000/svg">
<rect width="36" height="36" rx="4" fill="white" fill-opacity="0.1"/>
<path fill-rule="evenodd" clip-rule="evenodd" d="M9.00312 9.79727C8.42636 9.79727 7.80313 10.3553 7.80313 11.2473V24.7473C7.80313 25.6393 8.42636 26.1973 9.00312 26.1973H27.0031C27.5799 26.1973 28.2031 25.6393 28.2031 24.7473V21.8473H23.0032C20.8769 21.8473 19.1532 20.1236 19.1532 17.9973C19.1532 15.871 20.8769 14.1473 23.0032 14.1473H28.2031V11.2473C28.2031 10.3553 27.5799 9.79727 27.0031 9.79727H9.00312ZM29.8031 14.1473V11.2473C29.8031 9.65398 28.6355 8.19727 27.0031 8.19727H9.00312C7.37075 8.19727 6.20312 9.65398 6.20312 11.2473V24.7473C6.20312 26.3405 7.37075 27.7973 9.00312 27.7973H27.0031C28.6355 27.7973 29.8031 26.3405 29.8031 24.7473V21.8473H29.8532V14.1473H29.8031ZM22.0032 17.9473C22.0032 17.4778 22.3837 17.0973 22.8532 17.0973H24.1532C24.6226 17.0973 25.0032 17.4778 25.0032 17.9473C25.0032 18.4167 24.6226 18.7973 24.1532 18.7973H22.8532C22.3837 18.7973 22.0032 18.4167 22.0032 17.9473ZM20.8532 17.9973C20.8532 16.8099 21.8158 15.8473 23.0032 15.8473H28.1532V20.1473H23.0032C21.8158 20.1473 20.8532 19.1847 20.8532 17.9973Z" fill="white"/>
</svg>
